<?xml version="1.0" standalone="no"?>
<!DOCTYPE svg PUBLIC "-//W3C//DTD SVG 20010904//EN"
 "http://www.w3.org/TR/2001/REC-SVG-20010904/DTD/svg10.dtd">
<svg version="1.0" xmlns="http://www.w3.org/2000/svg"
 width="657.000000pt" height="380.000000pt" viewBox="0 0 657.000000 380.000000"
 preserveAspectRatio="xMidYMid meet">

<g transform="translate(0.000000,380.000000) scale(0.100000,-0.100000)"
fill="#000000" stroke="none">
<path d="M2835 3293 c-68 -35 -198 -169 -220 -227 -23 -61 -17 -171 13 -218
11 -18 220 -231 464 -475 l443 -443 -457 -457 c-497 -499 -478 -475 -478 -593
0 -33 8 -72 20 -97 25 -56 165 -194 224 -221 65 -31 147 -30 212 3 71 35 1214
1180 1243 1245 30 66 29 179 -3 245 -34 71 -1179 1214 -1246 1244 -65 30 -151
27 -215 -6z"/>
</g>
</svg>
